<svg xmlns="http://www.w3.org/2000/svg" width="128" height="128" viewBox="0 0 128 128" fill="none">
  <title>TabTree Option 2 - Stacked Tabs (Transparent, Contrast Safe)</title>

  <!-- Bright outer outline to increase visibility across mixed backgrounds -->
  <g fill="none" stroke="#FDE047" stroke-width="10" stroke-linejoin="round">
    <rect x="14" y="18" width="12" height="92" rx="6"/>
    <rect x="24" y="26" width="18" height="8" rx="4"/>
    <rect x="24" y="56" width="18" height="8" rx="4"/>
    <rect x="24" y="86" width="18" height="8" rx="4"/>

    <rect x="40" y="16" width="74" height="28" rx="8"/>
    <rect x="30" y="46" width="74" height="28" rx="8"/>
    <rect x="20" y="76" width="74" height="28" rx="8"/>
  </g>

  <!-- Mid halo keeps shape readable where yellow outline blends -->
  <g fill="none" stroke="#FFFFFF" stroke-width="6" stroke-linejoin="round">
    <rect x="14" y="18" width="12" height="92" rx="6"/>
    <rect x="24" y="26" width="18" height="8" rx="4"/>
    <rect x="24" y="56" width="18" height="8" rx="4"/>
    <rect x="24" y="86" width="18" height="8" rx="4"/>

    <rect x="40" y="16" width="74" height="28" rx="8"/>
    <rect x="30" y="46" width="74" height="28" rx="8"/>
    <rect x="20" y="76" width="74" height="28" rx="8"/>
  </g>

  <!-- Inner dark keyline for light backgrounds -->
  <g fill="none" stroke="#0B1220" stroke-width="3" stroke-linejoin="round">
    <rect x="14" y="18" width="12" height="92" rx="6"/>
    <rect x="24" y="26" width="18" height="8" rx="4"/>
    <rect x="24" y="56" width="18" height="8" rx="4"/>
    <rect x="24" y="86" width="18" height="8" rx="4"/>

    <rect x="40" y="16" width="74" height="28" rx="8"/>
    <rect x="30" y="46" width="74" height="28" rx="8"/>
    <rect x="20" y="76" width="74" height="28" rx="8"/>
  </g>

  <!-- Core fills -->
  <rect x="14" y="18" width="12" height="92" rx="6" fill="#2563EB"/>
  <rect x="24" y="26" width="18" height="8" rx="4" fill="#2563EB"/>
  <rect x="24" y="56" width="18" height="8" rx="4" fill="#2563EB"/>
  <rect x="24" y="86" width="18" height="8" rx="4" fill="#2563EB"/>

  <rect x="40" y="16" width="74" height="28" rx="8" fill="#2563EB"/>
  <rect x="30" y="46" width="74" height="28" rx="8" fill="#0EA5E9"/>
  <rect x="20" y="76" width="74" height="28" rx="8" fill="#14B8A6"/>

  <!-- Internal details (no keyline) -->
  <rect x="52" y="24" width="24" height="4" rx="2" fill="#0EA5E9"/>
  <rect x="42" y="54" width="24" height="4" rx="2" fill="#14B8A6"/>
  <rect x="32" y="84" width="24" height="4" rx="2" fill="#2563EB"/>
</svg>
